<svg width="482" height="476" viewBox="0 0 482 476" fill="none" xmlns="http://www.w3.org/2000/svg">
<g filter="url(#filter0_d_137_76)">
<g filter="url(#filter1_df_137_76)">
<path d="M352.342 131.376C388.251 163.506 422.473 200.872 420.063 235.62C417.653 270.368 378.611 302.736 342.702 326.06C306.552 349.384 273.776 363.426 234.734 369.614C195.933 375.564 150.625 373.66 114.234 350.336C77.6018 327.25 49.6458 282.506 52.7788 241.094C55.9118 199.682 90.3748 161.364 127.007 129.234C163.398 97.104 202.199 71.162 240.518 71.638C278.596 72.114 316.433 99.246 352.342 131.376Z" fill="#F2F4F8" fill-opacity="0.48" shape-rendering="crispEdges"/>
</g>
</g>
<defs>
<filter id="filter0_d_137_76" x="-4" y="0" width="490" height="484" filterUnits="userSpaceOnUse" color-interpolation-filters="sRGB">
<feFlood flood-opacity="0" result="BackgroundImageFix"/>
<feColorMatrix in="SourceAlpha" type="matrix" values="0 0 0 0 0 0 0 0 0 0 0 0 0 0 0 0 0 0 127 0" result="hardAlpha"/>
<feOffset dy="4"/>
<feGaussianBlur stdDeviation="2"/>
<feComposite in2="hardAlpha" operator="out"/>
<feColorMatrix type="matrix" values="0 0 0 0 0 0 0 0 0 0 0 0 0 0 0 0 0 0 0.25 0"/>
<feBlend mode="normal" in2="BackgroundImageFix" result="effect1_dropShadow_137_76"/>
<feBlend mode="normal" in="SourceGraphic" in2="effect1_dropShadow_137_76" result="shape"/>
</filter>
<filter id="filter1_df_137_76" x="47.5391" y="66.6316" width="377.644" height="313.851" filterUnits="userSpaceOnUse" color-interpolation-filters="sRGB">
<feFlood flood-opacity="0" result="BackgroundImageFix"/>
<feColorMatrix in="SourceAlpha" type="matrix" values="0 0 0 0 0 0 0 0 0 0 0 0 0 0 0 0 0 0 127 0" result="hardAlpha"/>
<feOffset dy="4"/>
<feGaussianBlur stdDeviation="2"/>
<feComposite in2="hardAlpha" operator="out"/>
<feColorMatrix type="matrix" values="0 0 0 0 0 0 0 0 0 0 0 0 0 0 0 0 0 0 0.25 0"/>
<feBlend mode="normal" in2="BackgroundImageFix" result="effect1_dropShadow_137_76"/>
<feBlend mode="normal" in="SourceGraphic" in2="effect1_dropShadow_137_76" result="shape"/>
<feGaussianBlur stdDeviation="2.5" result="effect2_foregroundBlur_137_76"/>
</filter>
</defs>
</svg>
