<svg width="102" height="317" viewBox="0 0 102 317" fill="none" xmlns="http://www.w3.org/2000/svg">
<path d="M47.37 50.2405L47.373 50.2603M38.2469 43.5494L38.25 43.5692M37.7902 53.7373L37.7932 53.757M33.5342 26.0626L27.7536 67.4218L65.4648 49.4813C62.6326 43.1423 58.1993 37.6497 52.6007 33.5436C47.0022 29.4375 40.4312 26.8593 33.5342 26.0626Z" stroke="#E7E7E7" stroke-width="3" stroke-linecap="round" stroke-linejoin="round"/>
<path d="M32.4678 33.7337C38.0391 34.5191 43.3292 36.6716 47.8661 39.999C52.403 43.3265 56.0455 47.7254 58.4685 52.8033" stroke="#E7E7E7" stroke-width="3" stroke-linecap="round" stroke-linejoin="round"/>
<path d="M47.37 50.2405L47.373 50.2603M38.2469 43.5494L38.25 43.5692M37.7902 53.7373L37.7932 53.757M33.5342 26.0626L27.7536 67.4218L65.4648 49.4813C62.6326 43.1423 58.1993 37.6497 52.6007 33.5436C47.0022 29.4375 40.4312 26.8593 33.5342 26.0626Z" stroke="#FF9F1C" stroke-width="2.5" stroke-linecap="round" stroke-linejoin="round"/>
<path d="M32.4678 33.7337C38.0391 34.5191 43.3292 36.6716 47.8661 39.999C52.403 43.3265 56.0455 47.7254 58.4685 52.8033" stroke="#FF9F1C" stroke-width="2.5" stroke-linecap="round" stroke-linejoin="round"/>
<path d="M49.3865 143.795L35.7446 181.397M43.4052 142.689L39.9947 152.089C38.2894 156.79 43.9297 158.836 43.9297 158.836C43.9297 158.836 49.57 160.882 51.2752 156.182L54.6857 146.782" stroke="#E7E7E7" stroke-width="4" stroke-linecap="round" stroke-linejoin="round"/>
<path d="M71.2967 152.308L65.8503 167.321L59.27 164.933L62.1689 156.943C62.8211 155.145 63.7471 153.991 64.7478 153.254C65.7514 152.514 66.8594 152.174 67.9041 152.053C68.9509 151.931 69.924 152.031 70.639 152.163C70.8963 152.211 71.1185 152.262 71.2967 152.308Z" stroke="#E7E7E7"/>
<path d="M66.1498 167.961L58.6294 165.233L61.6989 156.772C64.4272 149.252 71.9476 151.98 71.9476 151.98L66.1498 167.961ZM66.1498 167.961L58.3057 189.582" stroke="#E7E7E7" stroke-width="4" stroke-linecap="round" stroke-linejoin="round"/>
<path d="M49.3865 143.795L35.7446 181.397M43.4052 142.689L39.9947 152.089C38.2894 156.79 43.9297 158.836 43.9297 158.836C43.9297 158.836 49.57 160.882 51.2752 156.182L54.6857 146.782" stroke="#FF9F1C" stroke-width="3.5" stroke-linecap="round" stroke-linejoin="round"/>
<path d="M66.1498 167.961L58.6294 165.233L61.6989 156.772C64.4272 149.252 71.9476 151.98 71.9476 151.98L66.1498 167.961ZM66.1498 167.961L58.3057 189.582" stroke="#FF9F1C" stroke-width="3.5" stroke-linecap="round" stroke-linejoin="round"/>
<path d="M83.2562 276.541L83.256 276.541L83.2601 276.548C83.8706 277.537 83.976 278.667 83.6925 279.73L75.0794 307.268L75.079 307.269C74.1857 310.233 71.1696 311.99 68.1102 311.403L54.3785 308.769C51.3192 308.182 49.1673 305.434 49.4344 302.35L49.4345 302.348L51.6243 273.574L51.6243 273.574L51.6245 273.57C51.6752 272.476 52.2641 271.476 53.129 270.761C53.9818 270.056 55.1511 269.803 56.2358 270.011L67.1569 272.106L67.2556 272.125L67.3107 272.041L72.2551 264.495L72.2552 264.495L72.2586 264.489C72.8402 263.509 74.053 262.955 75.2782 263.19L82.666 264.608C83.5392 264.775 84.1288 265.716 83.9638 266.594C83.7174 267.461 82.8348 268.046 81.9555 267.877L74.9692 266.537L74.8701 266.518L74.8151 266.602L70.9139 272.616L70.7926 272.803L71.0114 272.845L80.6477 274.694C81.7325 274.902 82.7249 275.57 83.2562 276.541ZM55.1421 273.416L55.0901 273.45L55.0785 273.511C55.0783 273.512 55.0764 273.517 55.0695 273.53C55.0682 273.532 55.0667 273.535 55.0649 273.539C55.0564 273.555 55.0428 273.58 55.0319 273.607C55.0031 273.677 54.9879 273.763 55.0132 273.872L54.2889 283.274L54.2725 283.487L54.4785 283.43L55.8854 283.04L55.8854 283.04L55.8912 283.038C58.4141 282.229 61.3463 282.708 63.5678 284.345L63.7708 284.543L63.7788 284.551L63.7877 284.558C65.0608 285.478 66.6149 285.864 68.1497 285.478L69.1864 285.266L69.1864 285.266L69.1884 285.266C71.7521 284.704 74.4224 285.296 76.5682 286.926L77.295 287.477L77.4645 287.606L77.5287 287.403L80.2817 278.695L80.2843 278.686L80.286 278.678C80.3064 278.571 80.2942 278.486 80.2819 278.424C80.2779 278.403 80.2749 278.39 80.2726 278.379C80.271 278.371 80.2697 278.364 80.2685 278.356C80.2672 278.348 80.2671 278.344 80.2671 278.342C80.3038 278.145 80.1351 278.001 79.9373 277.963L55.5253 273.28C55.4376 273.263 55.3576 273.292 55.3019 273.319C55.2463 273.346 55.191 273.383 55.1462 273.413L55.1421 273.416ZM52.7297 302.685L52.7296 302.687C52.641 304.069 53.6374 305.304 54.9934 305.564L68.6448 308.183C70.0829 308.459 71.3969 307.583 71.7807 306.511L71.7809 306.511L71.7827 306.505L76.525 291.333L76.5559 291.235L76.4744 291.171L74.666 289.752C74.6659 289.752 74.6658 289.752 74.6656 289.752C73.4036 288.747 71.7671 288.348 70.1547 288.716L69.1165 288.929L69.1165 288.929L69.1126 288.93C66.629 289.507 64.0266 289.008 61.9488 287.478L61.5981 287.167L61.5984 287.166L61.5893 287.159C60.2395 286.135 58.4883 285.886 56.866 286.336L54.0522 287.115L53.9509 287.143L53.9427 287.248L52.7297 302.685Z" fill="#FF9F1C" stroke="#E7E7E7" stroke-width="0.3"/>
</svg>