<svg width="70" height="70" viewBox="0 0 70 70" fill="none" xmlns="http://www.w3.org/2000/svg">
<g clip-path="url(#clip0_47_67)">
<path d="M39.3837 65.1179C22.6855 67.6266 7.05865 56.0823 4.54982 39.3834C2.04093 22.6841 13.5859 7.05859 30.284 4.54986C46.9844 2.04082 62.6089 13.584 65.1178 30.2837C67.6267 46.9826 56.0837 62.6089 39.3837 65.1179ZM46.9529 8.84C45.5056 13.509 39.7043 32.1708 39.5045 32.8297L39.3564 32.7853C38.8756 33.6217 38.0749 34.264 37.0455 34.4187C35.2505 34.6884 33.5778 33.4501 33.3086 31.6586C33.1695 30.733 33.437 29.8502 33.9718 29.1645C34.4068 26.8535 35.7916 22.2886 38.6382 12.9155C38.8577 12.177 39.4797 11.6793 40.1934 11.5721C40.4705 11.5305 40.7549 11.5445 41.0385 11.6327C41.3846 11.7387 41.6546 11.9542 41.8823 12.2093C42.5411 10.0927 43.0634 8.40744 43.3567 7.47028C39.3407 6.21521 35.003 5.7881 30.5766 6.45312C19.442 8.12598 10.8464 16.0582 7.60792 26.1113L22.2765 36.4173L22.5526 36.0456C23.1197 35.2807 23.9453 34.8265 24.8897 34.6846C26.2423 34.4814 27.8518 34.9164 29.3137 35.9952L36.7129 41.4599C37.567 42.0905 37.7482 43.2965 37.1172 44.151C36.4869 45.0051 35.2809 45.1863 34.4264 44.5553L27.0277 39.089C26.2498 38.5144 25.5864 38.4589 25.6476 38.3318L25.3648 38.703L33.3795 44.6227C34.2341 45.2544 34.4152 46.46 33.7838 47.3138C33.1521 48.1688 31.9491 48.3496 31.0941 47.7179L23.0307 41.7584L22.9092 41.921C22.9074 42.0805 23.1541 42.6974 23.9334 43.2719L31.3336 48.736C32.1887 49.3655 32.3699 50.5721 31.7379 51.4272C31.1067 52.2821 29.9021 52.4631 29.0472 51.8315L21.6488 46.367C19.1708 44.5364 18.3331 41.749 19.708 39.8892L19.9852 39.5149L6.63714 29.6505C6.07277 32.6994 5.97191 35.8758 6.45677 39.1031C8.80786 54.7521 23.4521 65.5727 39.1007 63.2217C54.7514 60.8703 65.5695 46.2239 63.2185 30.5753C61.7363 20.7097 55.371 12.781 46.9529 8.84Z" fill="#E7E7E7"/>
<g clip-path="url(#clip1_47_67)">
<path d="M64.3984 30.3937C61.3929 32.2017 61.8566 32.3801 59.5174 35.0875L59.2955 35.351C58.9131 35.7881 58.1321 36.0267 57.5708 35.878L57.0895 35.7583C53.6414 34.8373 47.9403 34.6938 44.439 35.4614C42.4531 35.8904 41.3224 37.8371 41.9141 39.7732L48.4154 60.1108" stroke="#E7E7E7" stroke-width="4" stroke-linecap="round" stroke-linejoin="round"/>
<path d="M58.6022 36.168L62 44" stroke="#E7E7E7" stroke-width="4" stroke-linecap="round" stroke-linejoin="round"/>
<path d="M52.9426 41.2475L49.17 42.0021" stroke="#E7E7E7" stroke-width="2" stroke-linecap="round" stroke-linejoin="round"/>
<path d="M55.9608 45.3974L52.9426 46.1432L49.9245 46.889" stroke="#E7E7E7" stroke-width="2" stroke-linecap="round" stroke-linejoin="round"/>
</g>
</g>
<defs>
<clipPath id="clip0_47_67">
<rect width="61.2478" height="61.2478" fill="white" transform="matrix(0.988902 -0.148572 -0.148572 -0.988902 9.09972 69.6677)"/>
</clipPath>
<clipPath id="clip1_47_67">
<rect width="40.8318" height="40.8318" fill="white" transform="translate(36.3429 33.1858) rotate(-16.9931)"/>
</clipPath>
</defs>
</svg>
