<svg width="143" height="183" viewBox="0 0 143 183" fill="none" xmlns="http://www.w3.org/2000/svg">
<g clip-path="url(#clip0_165_47)">
<path d="M83.7505 127.536L83.7525 127.579M65.7785 111.165L65.7805 111.207M62.486 132.829L62.488 132.872M59.6849 72.7284L37.9289 159.787L122.587 130.028C117.977 115.839 109.753 103.095 98.7237 93.0485C87.6948 83.0019 74.2408 75.9989 59.6849 72.7284Z" stroke="#E7E7E7" stroke-width="10" stroke-linecap="round" stroke-linejoin="round"/>
<path d="M55.662 88.877C67.3876 91.8219 78.2017 97.624 87.1391 105.765C96.0766 113.907 102.859 124.134 106.882 135.535" stroke="#E7E7E7" stroke-width="10" stroke-linecap="round" stroke-linejoin="round"/>
<path d="M83.7505 127.536L83.7525 127.579M65.7785 111.165L65.7805 111.207M62.486 132.829L62.488 132.872M59.6849 72.7284L37.9289 159.787L122.587 130.028C117.977 115.839 109.753 103.095 98.7237 93.0485C87.6948 83.0019 74.2408 75.9989 59.6849 72.7284Z" stroke="#FF9F1C" stroke-width="8" stroke-linecap="round" stroke-linejoin="round"/>
<path d="M55.662 88.877C67.3876 91.8219 78.2017 97.624 87.1391 105.765C96.0766 113.907 102.859 124.134 106.882 135.535" stroke="#FF9F1C" stroke-width="8" stroke-linecap="round" stroke-linejoin="round"/>
</g>
<defs>
<clipPath id="clip0_165_47">
<rect width="143" height="183" fill="white"/>
</clipPath>
</defs>
</svg>
